<?xml version="1.0" encoding="utf-8"?>
<!-- Generator: Adobe Illustrator 21.0.0, SVG Export Plug-In . SVG Version: 6.00 Build 0)  -->
<svg version="1.1" id="Layer_1" xmlns="http://www.w3.org/2000/svg" xmlns:xlink="http://www.w3.org/1999/xlink" x="0px" y="0px"
	 width="504px" height="486px" viewBox="0 0 504 486" style="enable-background:new 0 0 504 486;" xml:space="preserve">
<style type="text/css">
	.st0{fill:none;stroke:#000000;stroke-width:120;stroke-miterlimit:10;}
	.st1{fill:#FFFFFF;}
	.st2{fill-rule:evenodd;clip-rule:evenodd;}
</style>
<g>
	<g>
		<g>
			<polygon class="st1" points="168.1,459.5 44.4,400.9 92,300.2 215.7,358.8 			"/>
		</g>
	</g>
	<g>
		<g>
			<g>
				<polygon class="st1" points="0,335.6 75,486 246.7,452.5 				"/>
			</g>
		</g>
	</g>
</g>
<g>
	<path d="M106.1,418.6c-12.5-6.2-16.4-8.7-20.8-13.1c-11.1-10.8-12.6-24.5-5.6-38.6c6.8-13.7,18.4-20.4,31.9-19.3
		c0.8-0.1,1.2,0.5,1.1,1.3l-0.6,15.8c0,0.9-0.5,1.4-1.4,1.4c-6.3-0.3-12.2,1.5-15.5,8.3c-3.1,6.3-1.8,12,2.9,16.5
		c2.5,2.4,5.2,4.2,16.7,9.9s14.6,6.8,18,7.3c6.5,1,11.8-1.4,14.9-7.7c3.4-6.8,1.3-12.5-2.8-17.4c-0.5-0.7-0.5-1.4,0.2-2l12.2-10.1
		c0.6-0.6,1.3-0.5,1.7,0.1c9.1,10.1,10.8,23.4,4,37.1c-7,14.1-18.8,21.2-34.1,18.9C123,426.3,118.6,424.8,106.1,418.6z"/>
</g>
<g>
	<g>
		<g>
			<polygon class="st1" points="232.1,335.8 108.4,277.2 167.8,156.2 291.5,214.8 			"/>
		</g>
	</g>
	<path d="M153.6,236.2c-0.6-0.6-0.8-1.3-0.4-2.1l7.4-15c0.4-0.8,1.1-1.1,2-1l92,11.5c0.8,0.1,1.2,0.6,0.8,1.4l-7.7,15.5
		c-0.4,0.8-1,1.1-2,1l-16.4-2.4l-14,28.3l11.9,11.5c0.7,0.7,0.8,1.3,0.4,2.1l-7.7,15.6c-0.4,0.8-1,0.8-1.6,0.2L153.6,236.2z
		 M212.1,242.5l-32.8-4.9l-0.2,0.4l23.8,23.2L212.1,242.5z"/>
</g>
<g>
	<g>
		<g>
			<polygon class="st1" points="288,200.1 164.3,141.5 223.7,20.5 347.4,79.1 			"/>
		</g>
	</g>
	<path d="M201.3,127.8c-0.7-0.4-1-1.1-0.6-1.8l7.1-14.3c0.4-0.8,1.1-1.4,2.2-1.4l65-3.3l0.3-0.6l-50.9-25.2c-0.7-0.4-1-1.1-0.6-1.8
		l6.7-13.4c0.4-0.7,1.1-1,1.8-0.6l78.4,38.9c0.7,0.4,1,1.1,0.6,1.8l-7,14.1c-0.5,1-1.1,1.4-2.2,1.4l-64.9,3.5l-0.3,0.6l50.8,25.1
		c0.7,0.4,1,1.1,0.6,1.8l-6.7,13.4c-0.4,0.7-1.1,1-1.8,0.6L201.3,127.8z"/>
</g>
<g>
	<g>
		<g>
			<polygon class="st1" points="415.3,319.4 311,230.7 399.9,129.3 504.1,218 			"/>
		</g>
	</g>
	<path d="M409.6,272c-0.7,0-1.6-0.4-1.8-1.4l-2-15.2c-0.1-0.8,0.4-1.4,1.2-1.6c7.5-1.3,16.3-4.4,22.6-11.6
		c6.2-7.1,6.5-13.9,1.7-18.2c-4-3.5-8.6-3.3-16.8,3.8l-3.7,3.1c-14,12.1-27.2,14-39.2,3.5c-12.4-11-12.5-27.6,0.4-42.2
		c7.9-9,17.9-14.9,27.3-16.8c0.9-0.2,1.4,0,1.7,1.1l3.7,14.1c0.1,0.8-0.2,1.4-0.9,1.7c-7.9,2.2-14.1,5.6-19,11.2
		c-5.3,6-4.9,11.8-0.6,15.5c3.9,3.4,8.8,2.8,16.8-4l3.7-3.1c14.2-12.3,27-14,39.3-3.2c12.2,10.8,13.3,27.8-2.1,45.3
		C432.5,264.6,419.3,271.2,409.6,272z"/>
</g>
</svg>
