<?xml version="1.0" encoding="utf-8"?>
<!-- Generator: Adobe Illustrator 21.0.0, SVG Export Plug-In . SVG Version: 6.00 Build 0)  -->
<svg version="1.1" id="Layer_1" xmlns="http://www.w3.org/2000/svg" xmlns:xlink="http://www.w3.org/1999/xlink" x="0px" y="0px"
	 width="304px" height="590px" viewBox="0 0 304 590" style="enable-background:new 0 0 304 590;" xml:space="preserve">
<style type="text/css">
	.st0{fill:none;stroke:#000000;stroke-width:120;stroke-miterlimit:10;}
	.st1{fill:#FFFFFF;}
	.st2{fill-rule:evenodd;clip-rule:evenodd;}
</style>
<g>
	<g>
		<g>
			<polygon class="st1" points="256.7,403.3 143.7,443.6 0.2,40.2 113.2,-0.1 			"/>
		</g>
	</g>
	<g>
		<g>
			<g>
				<polygon class="st1" points="75.7,430.7 258.1,585.7 301.1,350.3 				"/>
			</g>
		</g>
	</g>
</g>
<g>
	<path d="M31.7,67.3c-0.2-0.7,0.1-1.2,0.7-1.5l72.7-24.5c0.7-0.2,1.2,0.1,1.5,0.7l9.8,29.1c5.5,16.3-1,29.4-15.3,34.3
		c-14.1,4.8-27.4-1.8-32.8-18l-4.5-13.3c-0.1-0.4-0.4-0.6-0.9-0.4l-25,8.4c-0.7,0.2-1.3-0.1-1.5-0.7L31.7,67.3z M95.7,89.2
		c6.1-2,8.8-7.5,6.5-14.3L98,62.5c-0.1-0.4-0.4-0.6-0.9-0.4l-18.8,6.4c-0.4,0.1-0.6,0.4-0.4,0.9L82,81.7
		C84.3,88.5,89.6,91.3,95.7,89.2z"/>
	<path d="M70.9,127.3c4.6-3.4,8.7-5.3,19.8-9c11.1-3.8,15.5-4.7,21.2-4.8c13.4-0.2,23,8.1,27.4,21.2s1.9,25.5-9,33.5
		c-4.6,3.4-8.7,5.3-19.8,9c-11.1,3.8-15.5,4.7-21.2,4.8c-13.4,0.2-23-8.1-27.4-21.2S60,135.2,70.9,127.3z M88.5,164.9
		c2.9,0,6.7-0.9,16.5-4.2c9.8-3.3,13.3-4.9,15.7-6.6c4.6-3.4,6.4-8.4,4.3-14.6c-2.1-6.2-6.5-9.1-12.2-9c-2.9,0-6.7,0.9-16.5,4.2
		c-9.8,3.3-13.3,4.9-15.7,6.6c-4.6,3.4-6.4,8.4-4.3,14.6C78.3,162.1,82.7,165,88.5,164.9z"/>
	<path d="M85,195.4c0.3-0.6,1-1.1,1.8-0.7l12.4,5.1c0.7,0.3,0.9,0.9,0.7,1.6c-2.3,6.3-3.8,14.3-1.1,22.2c2.6,7.8,7.8,11,13.1,9.2
		c4.4-1.5,6.3-5.1,4.5-14.4l-0.8-4.2c-3-15.9,1.3-26.8,14.5-31.3c13.8-4.6,26.4,2.6,31.9,18.8c3.3,9.9,3.5,20.2,0.8,28.1
		c-0.2,0.8-0.6,1.1-1.6,0.8l-12.3-3.3c-0.7-0.3-1-0.8-0.9-1.4c1.8-7,1.9-13.2-0.1-19.3c-2.2-6.6-6.8-8.9-11.5-7.3
		c-4.3,1.4-6,5.5-4.3,14.5l0.8,4.2c3.1,16.1-1.2,26.7-14.7,31.2c-13.6,4.6-27-2.1-33.5-21.5C80.6,216.1,81.4,203.2,85,195.4z"/>
	<path d="M104.5,282.9c-0.2-0.7,0.1-1.3,0.7-1.5l58.7-19.8c0.4-0.1,0.6-0.4,0.4-0.9l-6.4-19c-0.2-0.7,0.1-1.2,0.7-1.5l12.2-4.1
		c0.7-0.2,1.2,0.1,1.5,0.7l18.7,55.4c0.2,0.7-0.1,1.3-0.7,1.5l-12.2,4.1c-0.7,0.2-1.2-0.1-1.5-0.7l-6.4-19c-0.1-0.4-0.4-0.6-0.9-0.4
		l-58.7,19.8c-0.7,0.2-1.3-0.1-1.5-0.7L104.5,282.9z"/>
	<path d="M193.4,302.8c0.7-0.2,1.2,0.1,1.5,0.7l16.2,48c0.2,0.7-0.1,1.3-0.7,1.5l-11.8,4c-0.7,0.2-1.2-0.1-1.5-0.7L186.2,324
		c-0.1-0.4-0.4-0.6-0.9-0.4l-14.9,5c-0.4,0.1-0.6,0.4-0.4,0.9l9.1,26.9c0.2,0.7-0.1,1.2-0.7,1.5l-11.7,3.9c-0.7,0.2-1.3-0.1-1.5-0.7
		l-9.1-26.9c-0.1-0.4-0.4-0.6-0.9-0.4l-15.5,5.2c-0.4,0.1-0.6,0.4-0.4,0.9l10.9,32.3c0.2,0.7-0.1,1.2-0.7,1.5l-11.8,4
		c-0.7,0.2-1.3-0.1-1.5-0.7l-16.2-48c-0.2-0.7,0.1-1.2,0.7-1.5L193.4,302.8z"/>
	<path d="M154.6,431.4c-0.3-1-0.1-1.4,0.5-2l23.1-22.1l-3.4-10c-0.1-0.4-0.4-0.6-0.9-0.4l-26.8,9c-0.7,0.2-1.3-0.1-1.5-0.7l-4.7-14
		c-0.2-0.7,0.1-1.2,0.7-1.5l72.7-24.5c0.7-0.2,1.3,0.1,1.5,0.7l10.1,29.9c5.2,15.3-1,28.7-14.7,33.3c-9.6,3.2-18.9,0.7-25.3-6.3
		l-24.5,24.7c-0.5,0.6-1.3,0.4-1.6-0.3L154.6,431.4z M205.8,412.8c5.6-1.9,7.9-7.1,5.8-13.3l-4.5-13.2c-0.1-0.4-0.4-0.6-0.9-0.4
		l-17.3,5.8c-0.4,0.1-0.6,0.4-0.4,0.9l4.5,13.2C195.1,411.9,200.1,414.7,205.8,412.8z"/>
	<path d="M171.6,452c0.3-0.6,1-1.1,1.8-0.7l12.4,5.1c0.7,0.3,0.9,0.9,0.7,1.6c-2.3,6.3-3.8,14.3-1.1,22.2c2.6,7.8,7.8,11,13.1,9.2
		c4.4-1.5,6.3-5.1,4.5-14.4l-0.8-4.2c-3-15.9,1.3-26.8,14.5-31.3c13.8-4.6,26.4,2.6,31.9,18.8c3.3,9.9,3.5,20.2,0.8,28.1
		c-0.2,0.8-0.6,1.1-1.6,0.8l-12.3-3.3c-0.7-0.3-1-0.8-0.9-1.4c1.8-7,1.9-13.2-0.1-19.3c-2.2-6.6-6.8-8.9-11.5-7.3
		c-4.3,1.5-6,5.5-4.3,14.5l0.8,4.2c3.1,16.1-1.2,26.7-14.7,31.2c-13.6,4.6-27-2.1-33.5-21.5C167.1,472.7,167.9,459.8,171.6,452z"/>
</g>
</svg>
